<svg id="Capa_1" data-name="Capa 1" xmlns="http://www.w3.org/2000/svg" viewBox="0 0 2921 1038"><defs><style>.cls-1{fill:#fff;}</style></defs><path class="cls-1" d="M191.09,411c2.92,27.78,5.68,54,8.61,81.84l7.59,80.22-.26-.18,9,92.71A245,245,0,0,0,367.59,869l159.34,64.79c7.49,2.79,17.81,2.94,25.25.16l163.74-69.25a244.75,244.75,0,0,0,148.41-201.8c0-.49.09-1,.14-1.46,2.75-28.59,5-57.23,7.76-88.41l-.64.44,8.22-81.67h.09c2.8-27.95,5.44-54.18,8.1-80.74ZM495.7,536.15a7.27,7.27,0,0,1,7.09-5.65h82.83a7.29,7.29,0,0,1,7,5.14L595,543.5H494Zm-15.83,71.79a11.89,11.89,0,0,1,11.59-9.22H597.22a11.88,11.88,0,0,1,11.36,8.4l1.42,4.6H479ZM463.6,673a7.82,7.82,0,0,1,7.63-6.06h146a7.82,7.82,0,0,1,7.48,5.52L627,680H462ZM402.85,775A58.69,58.69,0,0,1,345,726.93l-11.79-64.12,1.51-1.19-2-1.38L306,514.62a18.43,18.43,0,0,1,18.12-21.76H458.18l.7.83L408.13,775ZM444,753.5l1.41-6.1a8.9,8.9,0,0,1,8.67-6.9H634.42a8.9,8.9,0,0,1,8.51,6.29L645,753.5ZM773.23,513.6l-27.9,147.61-.59.41.44.35-12.33,65.24a58.68,58.68,0,0,1-58,47.79h0L620,492.07l.26-.31H755.12A18.43,18.43,0,0,1,773.23,513.6Z"/><path class="cls-1" d="M875.05,365H863.74A367.13,367.13,0,0,0,593,174.82l-2.93-10.5A374.84,374.84,0,0,1,747.24,223q5.22,3.45,10.31,7l68.13-55.67-41.91,76A377.09,377.09,0,0,1,875.05,365Z"/><path class="cls-1" d="M489.88,164.34,487,174.84A366.89,366.89,0,0,0,216.27,365H205a378.16,378.16,0,0,1,91.6-114.88L254.81,174.4l67.9,55.49c5.69-4,11.49-7.89,17.4-11.59A375.23,375.23,0,0,1,489.88,164.34Z"/><path class="cls-1" d="M439.94,408.45c-18.24,3.25-34.56,6.52-51,8.79-3.53.49-8.84-1.69-11-4.45-2-2.51-2.28-8.51-.55-11.12,2-2.94,7-3.95,10.77-5.49,1-.41,2.49.4,3.76.53,13.78,1.4,27.56,2.81,41.35,4.13a25.19,25.19,0,0,0,4.3-.18c3-12.21,4.69-24.27,9-35.34s11.14-21.14,17.68-33.13c-12.53-8.83-25.87-18.28-39.27-27.64-6.67-4.66-8.49-10.67-4.68-16.23,4.85-7.08,13.28-6.41,19.12,1.19,9.83,12.8,19.89,25.42,29.59,37.78,11.24-7.05,20.83-14.49,31.58-19.4s22.78-7.37,35.77-11.37c-.82-7.49-1.49-16.34-2.85-25.07-1.23-7.86-4-15.53-4.57-23.4-.29-3.88,1.73-9.2,4.6-11.67,2.26-1.95,8.66-2.06,11-.2a15.62,15.62,0,0,1,5.09,11.5c-.85,15.09-2.84,30.12-4.34,45.17a16.1,16.1,0,0,0,.23,3.53c12.2,3,24.22,4.74,35.3,9,10.88,4.14,20.81,10.78,32.76,17.18,6.38-8.48,13.78-18.13,21-27.95,2.87-3.93,4.63-8.86,8-12.14,2.8-2.69,7.62-5.4,11-4.81s7.71,4.91,8.4,8.25-1.63,8.69-4.41,11.06c-12.67,10.77-26,20.8-39.8,31.69,17.83,19.27,27.87,41,30.23,67.55,16.72-3,32.6-5.62,48.4-8.67,5.94-1.15,11.38-.55,13.81,5.12,1.37,3.2,1.35,9-.67,11.17-2.61,2.84-7.94,4.73-11.94,4.48-15.09-.92-30.1-2.88-45.15-4.41a27.25,27.25,0,0,0-4.08.2c-.6,4.65-1.17,9.09-1.84,14.25l-18.83-2.38c0-3.55,0-6.34,0-10.57-6.26,2.35-12.2,4.26-17.85,6.79-5.49,2.45-9.59,2.33-13-3.39-2.91-4.84-16.57-4.63-20-.28-1.06,1.36-3.33,3.19-4.35,2.83-1.55-.55-2.48-2.82-4.42-5.33-2.45.09-8.21-1.29-9.68.63-6.6,8.6-15,2.93-22.42,3.84-3.87.47-8-2.38-12.18-2.88-2-.24-4.15,1.61-6.29,2.29-1.62.52-3.92,1.57-4.94.9-7.93-5.22-15.28-4.42-22.71,1-1.25.91-3.48.54-5.27.67-12.19.87-24.59-.78-36.52,3.49C443.24,417.62,438.84,417.26,439.94,408.45ZM516,382.24c-2.85-2.7-5-5.36-7.75-7.16-2.41-1.6-5.76-3.58-8.18-3-6.6,1.46-10.06-.69-12.51-6.73-2.25-5.53-5.44-10.68-8.39-16.34-12.19,13-20.07,34.12-18.71,50.2,6.18-2.39,12.15-4.43,17.88-7,5-2.26,8.53-1.33,12,3,1.67,2.09,4.93,3.49,7.7,4,8.15,1.57,13.64-1.29,15-10.21C513.43,386.85,514.85,384.85,516,382.24Zm81.65-44.52c-15.38-12.42-31.49-18.6-51.36-19.56,2.88,7.24,5.69,13,7.37,19.1.83,3,.65,8.74-.91,9.5-8.17,4-6,10.93-5.65,17.13.12,2,2.54,4.22,4.43,5.64a15.05,15.05,0,0,0,6.41,2.4c2.66.45,7,1.35,7.86.13,3-4.38,11.23-5.87,8.39-13.81-2.19-6.1.42-9.55,6.17-11.9S591.26,341,597.66,337.72ZM535.9,318.38c-19.6,2.25-35.28,9.25-49.88,22.47,7.09,3.08,12.61,5.74,18.32,7.88,5.4,2,7.51,5.35,6.79,11.21a11.6,11.6,0,0,0,2.31,7.7c2.43,3.15,5.81,5.56,8.56,8.08l16.14-7.44c0-2.12,0-4.39,0-6.65,0-5.51.53-10.86-6.36-13.83-1.77-.76-2.41-6.71-1.8-9.94C531.13,331.67,533.57,325.72,535.9,318.38Zm34.35,62.18c1.75,3.75,3.16,7.33,5,10.62,1.24,2.14,3.39,5.62,4.78,5.46,5.4-.62,12.3,3.17,15.95-3.47s8.06-6.67,14.15-4.15c5.28,2.18,10.89,3.58,17.32,5.63-2-19.74-9.15-35.38-22.34-49.83-2.87,6.54-5.6,12-7.66,17.7s-5.51,8.14-11.74,7a9,9,0,0,0-6.52,1.66C575.94,373.89,573.24,377.36,570.25,380.56ZM547.71,391.7,558.78,380l-11.38-4.77C547.51,380.91,547.59,385.35,547.71,391.7Zm22.53,5.41-4.87-11.34-11.18,11.91Zm-43.12-16.45,11.74,11.12c-.22-6.42-.36-10.79-.55-16.07ZM521,387l-3.91,11.6,15.51-.48Z"/><path class="cls-1" d="M1030.6,447.13c7.41-28.89,20.76-54.08,44.65-72.95,39.32-31.06,88.65-35.5,131.82-11.64,41.43,22.91,63.82,66.86,58.43,114.73-5,44.76-40.07,85-85.75,98.48-4.55,1.35-9,2.93-13.52,4.39h-36.52c-3.15-1.15-6.26-2.49-9.47-3.44-45-13.28-74.63-41.71-87-87.44-.53-2-1.76-3.75-2.66-5.62Zm186.06,14.65c-2.14-20.4-2.63-43.19-7.29-65.09-6.41-30.15-26.93-44.51-58.54-45.15-32.4-.66-53.44,11.92-60.95,41.85-12.12,48.28-12.26,97.36,1.59,145.42,3.08,10.71,11.76,22.2,21.13,28.3a63.51,63.51,0,0,0,97.52-41C1214.13,505.82,1214.45,484.78,1216.66,461.78Z"/><path class="cls-1" d="M1841.75,580.14c-13.74-3.68-27.34-8.12-41.29-10.65-5-.89-10.76,2.87-16.81,4.7V507.3l2.9-.5c1.31,4.31,2.58,8.63,4,12.92,12.86,40.31,41.09,59.64,81.18,55.33,17.52-1.89,31.32-10,39.68-25.95,12-22.85,5.09-44.5-18.52-55.05-12.61-5.63-26.26-8.89-39.34-13.5-10.63-3.74-21.58-7-31.58-12-42.87-21.67-47.38-76.56-8.64-105.08,27-19.84,56.35-20.28,86.66-8.73,8.68,3.31,17.16,7.19,26.48-4.18v59.18l-2,1c-3.17-7.49-6.25-15-9.52-22.46-13.21-30-35.55-42.48-67-34.63-10.67,2.65-21.63,9.53-29.31,17.51-12.69,13.18-10.33,32.31,4.19,43.55,7.73,6,17,10.37,26.25,13.89,16.61,6.33,33.87,11,50.5,17.23,24.5,9.23,44,23.83,46.07,52.49,2.21,30.19-11,53.09-36.63,68.41-9.49,5.68-20.39,9-30.65,13.43Z"/><path class="cls-1" d="M2047.8,580.14c-13.78-3.66-27.43-8.06-41.41-10.58-5-.91-10.84,2.73-17.22,4.56V507.6l3-.67c1.29,4.22,2.55,8.45,3.86,12.66,12.6,40.52,42.07,60.42,82.39,55.31,16.42-2.08,29.59-9.72,37.79-24.58,12.88-23.32,6.39-45.11-17.77-56.25-11.75-5.42-24.56-8.51-36.83-12.8-11-3.87-22.51-7-33-12.08-45.32-22.21-48.8-80-6.62-108,26-17.26,53.84-17.62,82.27-6.89,9.42,3.56,18.47,7.56,28.41-3.4v58.86l-3.08,1.26c-2.82-7.07-5.55-14.17-8.48-21.19-12.92-30.95-35.3-43.77-67.36-36.34A62.37,62.37,0,0,0,2026,368.79c-14.85,14.33-12.82,35.37,4.14,47.22,9.42,6.58,20.65,10.86,31.51,15,14.17,5.43,29,9.25,43.16,14.59,25,9.43,44.75,24.41,46.49,53.61,1.79,30.14-11.84,52.88-37.58,68-9.17,5.38-19.55,8.69-29.38,12.94Z"/><path class="cls-1" d="M2629.42,355.84c-23-4.28-33.8,8.29-42.09,27.8-8.47,19.92-19,39.11-30.31,57.61-12.45,20.39-18,41.49-16.23,65.43,1.49,20.72.31,41.63.31,63.79l27,1.84c0,.71-.06,1.42-.08,2.12h-99.21c-.05-.5-.11-1-.16-1.52a39.11,39.11,0,0,1,6-1.31c21-1.33,19.3-1.48,21.4-21.89,4.64-45.14-5.4-85.31-32.31-122.19-13-17.79-22.94-37.9-33.16-57.53-5.26-10.11-11.4-15.77-23.2-13.56-2.35.44-4.94-.35-7.25-2.85h97.44l.12,2.29-22.72,1.3,63.79,108.89c19.66-37.24,38.18-72.29,57.43-108.76l-24.69-1.49c0-.86,0-1.72,0-2.58h57.9Z"/><path class="cls-1" d="M1293.46,572.14l26-1.4V357.14l-29.67-1.4c4.43-2.11,5.56-3.13,6.69-3.12,39.06.1,78.19-1.12,117.15.94,29.53,1.57,56.39,12.65,79.09,32.93,41.88,37.42,45.94,136.84-24.09,172.23-23.41,11.83-48.2,17.27-74.12,17.59-33.75.42-67.5.1-101.25.1C1293.36,575,1293.41,573.56,1293.46,572.14Zm72.6-109.44c0,32.55-.22,65.1.29,97.65.06,3.88,3.51,10.47,6.44,11.14,41,9.29,82.67-16.48,93.25-57.66,8.36-32.52,7.08-65.53.9-98.17-7-37.23-29.28-56.33-67.09-59.35-7.33-.59-14.77.07-22.1-.56-9.11-.77-12,2.85-11.87,11.91C1366.34,399.33,1366.06,431,1366.06,462.7Z"/><path class="cls-1" d="M2385.92,508.71v66.16H2187.75c-.07-.79-.14-1.59-.2-2.39l26.18-1.9V357.2L2188,355.93l.06-2.25h184.87v50.54l-2.53,1c-1.68-3.55-3.37-7.09-5-10.65-11.48-24.87-30.3-38.42-58.29-38.1-15.08.17-30.16,0-46.09,0v94.73c25.11,4.71,50.57,7.09,66.95-42.53v93.49c-7.2-11.77-13-25.74-22.72-36-11.41-12-28.16-8.29-45.11-7.7v45.69c0,18.25.45,36.52-.18,54.74-.33,9.39,2,13.54,12.24,12.79,11.24-.82,22.58-.15,33.88-.19,36.39-.15,59.77-16.48,72.35-50.52,1.6-4.34,3-8.75,4.5-13.13Z"/><path class="cls-1" d="M1536.33,353.32h97.88l.21,2.48-22.75,1.36L1675.4,466c19.58-37,38.07-72,57.44-108.58l-25.08-1.73.12-2.25h58.61c-2.79,1.59-4,2.87-4.86,2.68-20.79-4.47-28.3,9.07-36,24.66-13.56,27.67-28.77,54.52-42.7,82a46.82,46.82,0,0,0-4.89,19.7c-.52,29-.22,58-.22,88.33l27.35,1.3c0,.84-.08,1.69-.13,2.53h-99.37l-.21-1.76c2.63-.47,5.25-1.32,7.89-1.34,19.81-.19,16.92,3.11,19.26-18.79,5.07-47.46-5.86-89.58-33.94-128.23-12.18-16.76-21.56-35.67-31.2-54.12-5.43-10.4-11.93-16.38-24.21-14.08-2.23.41-4.74-.73-7.12-1.16C1536.24,354.58,1536.28,354,1536.33,353.32Z"/><path class="cls-1" d="M1427.09,675c-3.67,12.34-12.78,21.67-29.23,21.67-22.34,0-34.12-17.78-34.12-39.67,0-21,11.56-40.12,34.23-40.12,16.78,0,26.67,9.33,29.23,22.34h-6c-3.56-10.12-10.12-16.78-23.56-16.78-19.34,0-27.45,17.67-27.45,34.45s8,34.22,27.89,34.22c12.67,0,19.12-6.55,23-16.11Z"/><path class="cls-1" d="M1450,659.44v36.34h-6.11V618h27.9c15.33,0,23.44,8.22,23.44,20.45,0,9.89-5.89,16.33-14.55,18.22,8,1.89,13.33,7.12,13.33,20.34v3c0,5.45-.44,12.78,1,15.78h-6.11c-1.45-3.33-1.11-9.56-1.11-16.22v-2c0-12.78-3.78-18.12-18.67-18.12Zm0-5.56h18.79c13.66,0,20-5.11,20-15.33,0-9.56-6.22-15-18.34-15H1450Z"/><path class="cls-1" d="M1519.09,618v47.12c0,20.67,11.67,26,22.67,26,13,0,22.67-5.44,22.67-26V618h6.12v46.79c0,24.33-12.89,31.89-29,31.89-15.33,0-28.67-8.33-28.67-30.89V618Z"/><path class="cls-1" d="M1598.32,618v77.79h-6V618Z"/><path class="cls-1" d="M1620.66,674.89c2.33,10.33,9.22,16.45,22,16.45,14.23,0,19.67-7.12,19.67-15.56,0-8.78-3.89-14.23-21-18.45-16.45-4.11-23.56-9.45-23.56-20.67,0-10.22,7.45-19.78,24.11-19.78,17.12,0,24.34,10.45,25.34,19.89H1661c-1.78-8.33-7.22-14.33-19.45-14.33-11.22,0-17.33,5.22-17.33,13.89s5.11,11.89,19.44,15.44c21.9,5.45,25.12,14.23,25.12,23.56,0,11.45-8.34,21.34-26.34,21.34-19.45,0-26.56-11.34-28-21.78Z"/><path class="cls-1" d="M1731.45,657.55h-39.67v32.67h43.45l-.89,5.56h-48.56V618h47.67v5.56h-41.67V652h39.67Z"/><path class="cls-1" d="M1780,674.89c2.33,10.33,9.22,16.45,22,16.45,14.23,0,19.67-7.12,19.67-15.56,0-8.78-3.89-14.23-21-18.45-16.45-4.11-23.56-9.45-23.56-20.67,0-10.22,7.44-19.78,24.11-19.78,17.12,0,24.34,10.45,25.34,19.89h-6.22c-1.78-8.33-7.23-14.33-19.45-14.33-11.22,0-17.34,5.22-17.34,13.89s5.12,11.89,19.45,15.44c21.89,5.45,25.12,14.23,25.12,23.56,0,11.45-8.34,21.34-26.34,21.34-19.45,0-26.56-11.34-28-21.78Z"/><path class="cls-1" d="M1890.8,657.55h-39.67v32.67h43.45l-.89,5.56h-48.57V618h47.68v5.56h-41.67V652h39.67Z"/><path class="cls-1" d="M1916,659.44v36.34h-6.11V618h27.89c15.34,0,23.45,8.22,23.45,20.45,0,9.89-5.89,16.33-14.56,18.22,8,1.89,13.34,7.12,13.34,20.34v3c0,5.45-.45,12.78,1,15.78h-6.11c-1.45-3.33-1.11-9.56-1.11-16.22v-2c0-12.78-3.78-18.12-18.67-18.12Zm0-5.56h18.78c13.67,0,20-5.11,20-15.33,0-9.56-6.23-15-18.34-15H1916Z"/><path class="cls-1" d="M2000.25,695.78,1971.36,618h6.44l15.12,40.67c4.33,11.78,9.22,24.79,10.89,31.34h.22c1.67-5.78,7-19.45,11.34-30.89L2031,618h6.33l-30,77.79Z"/><path class="cls-1" d="M2056.59,618v77.79h-6V618Z"/><path class="cls-1" d="M2137.05,675c-3.67,12.34-12.78,21.67-29.23,21.67-22.34,0-34.12-17.78-34.12-39.67,0-21,11.56-40.12,34.23-40.12,16.78,0,26.67,9.33,29.23,22.34h-6c-3.56-10.12-10.12-16.78-23.56-16.78-19.34,0-27.45,17.67-27.45,34.45s8,34.22,27.89,34.22c12.67,0,19.12-6.55,23-16.11Z"/><path class="cls-1" d="M2199.5,657.55h-39.68v32.67h43.45l-.89,5.56h-48.56V618h47.68v5.56h-41.68V652h39.68Z"/><path class="cls-1" d="M2219.83,674.89c2.33,10.33,9.22,16.45,22,16.45,14.23,0,19.67-7.12,19.67-15.56,0-8.78-3.89-14.23-21-18.45-16.45-4.11-23.56-9.45-23.56-20.67,0-10.22,7.44-19.78,24.11-19.78,17.12,0,24.34,10.45,25.34,19.89h-6.22c-1.78-8.33-7.22-14.33-19.45-14.33-11.22,0-17.34,5.22-17.34,13.89s5.12,11.89,19.45,15.44c21.89,5.45,25.12,14.23,25.12,23.56,0,11.45-8.34,21.34-26.34,21.34-19.45,0-26.56-11.34-28-21.78Z"/><path class="cls-1" d="M597,189.15q-6.46-1.07-13-1.88l-3.93-14.09-2.89-10.34L540,29.33,502.76,162.84l-2.89,10.35-3.91,14q-6.52.81-13,1.85C377.31,206.1,284.92,270,231.66,365h45.61C335.12,276.92,432.88,223.5,540,223.5A315.31,315.31,0,0,1,802.69,365h45.65A354.59,354.59,0,0,0,597,189.15ZM540,185H509L540,55Z"/></svg>